<svg width="16" height="16" viewBox="0 0 16 16" fill="none" xmlns="http://www.w3.org/2000/svg">
<path fill-rule="evenodd" clip-rule="evenodd" d="M14.9791 3.0572C15.1947 2.8847 15.2297 2.57005 15.0572 2.35442C14.8847 2.13879 14.57 2.10383 14.3544 2.27633L12.1375 4.04984C11.0193 3.04565 9.59316 2.16677 8.00006 2.16677C6.57276 2.16677 5.28222 2.87276 4.23454 3.73058C3.18115 4.59308 2.3198 5.65253 1.741 6.45878L1.69326 6.52516C1.34483 7.00932 1.05801 7.40786 1.058 8.00008C1.058 8.5923 1.34477 8.99078 1.69314 9.47486L1.74085 9.54121C2.10505 10.0485 2.57943 10.6537 3.14155 11.2466L1.02104 12.943C0.805414 13.1155 0.770453 13.4301 0.942958 13.6458C1.11546 13.8614 1.43011 13.8964 1.64574 13.7239L14.9791 3.0572ZM8.00006 3.16677C9.18521 3.16677 10.3349 3.8063 11.3449 4.68391L9.60045 6.07947C9.16713 5.71813 8.60896 5.5001 8.00006 5.5001C6.61935 5.5001 5.50006 6.61939 5.50006 8.0001C5.50006 8.41035 5.59918 8.79813 5.77465 9.14011L3.9254 10.6195C3.37805 10.0498 2.91205 9.45793 2.5532 8.95805C2.13734 8.37875 2.058 8.23911 2.058 8.00009C2.058 7.76107 2.13737 7.62138 2.55334 7.04196C3.10619 6.27187 3.90905 5.28953 4.86806 4.50431C5.83279 3.71441 6.90288 3.16677 8.00006 3.16677ZM8.00006 6.5001C8.29086 6.5001 8.56226 6.58264 8.79228 6.72601L6.58295 8.49348C6.52922 8.3391 6.50006 8.17317 6.50006 8.0001C6.50006 7.17167 7.17163 6.5001 8.00006 6.5001Z"/>
<path d="M13.597 5.59394C13.4222 5.38012 13.1072 5.34845 12.8934 5.52319C12.6796 5.69794 12.6479 6.01293 12.8226 6.22675C13.0563 6.51267 13.2655 6.78939 13.4467 7.0419C13.8627 7.62138 13.9421 7.76108 13.9421 8.0001C13.9421 8.23911 13.8628 8.37881 13.4468 8.95824C12.8939 9.72833 12.0911 10.7107 11.1321 11.4959C10.1673 12.2858 9.09724 12.8334 8.00006 12.8334C7.06352 12.8334 6.14552 12.4348 5.29175 11.8216C5.06746 11.6605 4.75505 11.7117 4.59396 11.936C4.43286 12.1603 4.48409 12.4727 4.70837 12.6338C5.65806 13.3159 6.77845 13.8334 8.00006 13.8334C9.42736 13.8334 10.7179 13.1274 11.7656 12.2696C12.819 11.4071 13.6803 10.3477 14.2591 9.54142L14.3069 9.47504C14.6553 8.99088 14.9421 8.59233 14.9421 8.00009C14.9421 7.40786 14.6553 7.0093 14.3068 6.52511L14.2591 6.45872C14.0673 6.19158 13.8455 5.89806 13.597 5.59394Z" />
<path d="M10.5001 8.0001C10.5001 7.72396 10.2762 7.5001 10.0001 7.5001C9.72392 7.5001 9.50006 7.72396 9.50006 8.0001C9.50006 8.82853 8.82849 9.5001 8.00006 9.5001C7.72392 9.5001 7.50006 9.72396 7.50006 10.0001C7.50006 10.2762 7.72392 10.5001 8.00006 10.5001C9.38077 10.5001 10.5001 9.38081 10.5001 8.0001Z" />
</svg>
