<svg width="16" height="16" viewBox="0 0 16 16" fill="none" xmlns="http://www.w3.org/2000/svg">
<path fill-rule="evenodd" clip-rule="evenodd" d="M8.00004 5.50008C6.61933 5.50008 5.50004 6.61937 5.50004 8.00008C5.50004 9.38079 6.61933 10.5001 8.00004 10.5001C9.38076 10.5001 10.5 9.38079 10.5 8.00008C10.5 6.61937 9.38076 5.50008 8.00004 5.50008ZM6.50004 8.00008C6.50004 7.17165 7.17162 6.50008 8.00004 6.50008C8.82847 6.50008 9.50004 7.17165 9.50004 8.00008C9.50004 8.82851 8.82847 9.50008 8.00004 9.50008C7.17162 9.50008 6.50004 8.82851 6.50004 8.00008Z"/>
<path fill-rule="evenodd" clip-rule="evenodd" d="M8.00004 2.16675C6.57274 2.16675 5.28221 2.87274 4.23453 3.73056C3.18113 4.59306 2.31979 5.65251 1.74099 6.45876L1.69325 6.52514C1.34481 7.0093 1.05798 7.40785 1.05798 8.00008C1.05798 8.59231 1.34481 8.99086 1.69325 9.47502L1.74099 9.54141C2.31979 10.3476 3.18113 11.4071 4.23453 12.2696C5.28221 13.1274 6.57274 13.8334 8.00004 13.8334C9.42735 13.8334 10.7179 13.1274 11.7656 12.2696C12.819 11.4071 13.6803 10.3476 14.2591 9.5414L14.3068 9.47503C14.6553 8.99086 14.9421 8.59231 14.9421 8.00008C14.9421 7.40785 14.6553 7.00931 14.3068 6.52514L14.2591 6.45876C13.6803 5.65251 12.819 4.59306 11.7656 3.73056C10.7179 2.87274 9.42735 2.16675 8.00004 2.16675ZM2.55333 7.04194C3.10617 6.27185 3.90903 5.28951 4.86804 4.50429C5.83278 3.71439 6.90286 3.16675 8.00004 3.16675C9.09723 3.16675 10.1673 3.71439 11.132 4.50429C12.0911 5.28951 12.8939 6.27185 13.4468 7.04194C13.8627 7.62137 13.9421 7.76107 13.9421 8.00008C13.9421 8.2391 13.8627 8.37879 13.4468 8.95822C12.8939 9.72831 12.0911 10.7107 11.132 11.4959C10.1673 12.2858 9.09723 12.8334 8.00004 12.8334C6.90286 12.8334 5.83278 12.2858 4.86804 11.4959C3.90903 10.7107 3.10617 9.72831 2.55333 8.95822C2.13735 8.37879 2.05798 8.2391 2.05798 8.00008C2.05798 7.76107 2.13735 7.62137 2.55333 7.04194Z"/>
</svg>
