<svg width="28" height="28" viewBox="0 0 28 28" fill="none" xmlns="http://www.w3.org/2000/svg">
<path d="M14 11.1068C13.4278 11.1068 12.8684 11.2765 12.3926 11.5944C11.9168 11.9124 11.5459 12.3642 11.3269 12.8929C11.108 13.4216 11.0507 14.0034 11.1623 14.5646C11.2739 15.1259 11.5495 15.6414 11.9541 16.0461C12.3588 16.4507 12.8743 16.7263 13.4356 16.8379C13.9968 16.9495 14.5786 16.8922 15.1073 16.6733C15.636 16.4543 16.0878 16.0834 16.4058 15.6076C16.7237 15.1318 16.8934 14.5724 16.8934 14.0002C16.8934 13.6202 16.8185 13.244 16.6731 12.8929C16.5277 12.5419 16.3146 12.2229 16.0459 11.9543C15.7773 11.6856 15.4583 11.4725 15.1073 11.3271C14.7562 11.1817 14.38 11.1068 14 11.1068ZM25.585 8.2485C25.5796 7.34748 25.4137 6.45463 25.095 5.61183C24.8609 4.99497 24.4986 4.43477 24.032 3.96821C23.5654 3.50165 23.0052 3.13933 22.3884 2.90516C21.5456 2.58648 20.6527 2.42056 19.7517 2.41516C18.2467 2.3335 17.8034 2.3335 14 2.3335C10.1967 2.3335 9.75337 2.3335 8.24837 2.41516C7.34735 2.42056 6.45451 2.58648 5.61171 2.90516C4.99484 3.13933 4.43465 3.50165 3.96809 3.96821C3.50153 4.43477 3.13921 4.99497 2.90504 5.61183C2.58636 6.45463 2.42044 7.34748 2.41504 8.2485C2.33337 9.7535 2.33337 10.1968 2.33337 14.0002C2.33337 17.8035 2.33337 18.2468 2.41504 19.7518C2.42849 20.6559 2.59414 21.5512 2.90504 22.4002C3.13686 23.0149 3.49905 23.5721 3.96671 24.0335C4.4315 24.5026 4.99283 24.8648 5.61171 25.0952C6.45451 25.4138 7.34735 25.5798 8.24837 25.5852C9.75337 25.6668 10.1967 25.6668 14 25.6668C17.8034 25.6668 18.2467 25.6668 19.7517 25.5852C20.6527 25.5798 21.5456 25.4138 22.3884 25.0952C23.0073 24.8648 23.5686 24.5026 24.0334 24.0335C24.501 23.5721 24.8632 23.0149 25.095 22.4002C25.4127 21.553 25.5786 20.6565 25.585 19.7518C25.6667 18.2468 25.6667 17.8035 25.6667 14.0002C25.6667 10.1968 25.6667 9.7535 25.585 8.2485ZM22.6217 17.5818C22.5849 18.3019 22.4312 19.0111 22.1667 19.6818C21.9402 20.2415 21.6035 20.7498 21.1766 21.1767C20.7497 21.6036 20.2413 21.9403 19.6817 22.1668C19.0046 22.4166 18.2914 22.5545 17.57 22.5752H10.43C9.70866 22.5545 8.99544 22.4166 8.31837 22.1668C7.73964 21.9522 7.2171 21.6092 6.79004 21.1635C6.36703 20.7452 6.04052 20.2395 5.83337 19.6818C5.58341 19.0052 5.4493 18.2913 5.43671 17.5702V10.4302C5.4493 9.70898 5.58341 8.99509 5.83337 8.3185C6.04801 7.73977 6.39105 7.21723 6.83671 6.79016C7.25732 6.37 7.76234 6.04392 8.31837 5.8335C8.99544 5.5837 9.70866 5.44579 10.43 5.42516H17.57C18.2914 5.44579 19.0046 5.5837 19.6817 5.8335C20.2604 6.04813 20.783 6.39117 21.21 6.83683C21.6331 7.25513 21.9596 7.76082 22.1667 8.3185C22.4165 8.99557 22.5544 9.70878 22.575 10.4302V14.0002C22.575 16.4035 22.6567 16.6485 22.6217 17.5702V17.5818ZM20.755 8.90183C20.6161 8.52498 20.3971 8.18275 20.1131 7.89875C19.8291 7.61475 19.4869 7.39574 19.11 7.25683C18.5926 7.07747 18.0476 6.99059 17.5 7.00016H10.5C9.94969 7.00554 9.40462 7.10824 8.89004 7.3035C8.51896 7.4361 8.18035 7.64616 7.89672 7.91973C7.61309 8.1933 7.39095 8.52411 7.24504 8.89016C7.07623 9.4099 6.99347 9.95373 7.00004 10.5002V17.5002C7.01225 18.0498 7.11472 18.5937 7.30337 19.1102C7.44228 19.487 7.66129 19.8292 7.94529 20.1132C8.22929 20.3972 8.57152 20.6163 8.94837 20.7552C9.44631 20.9377 9.97004 21.04 10.5 21.0585H17.5C18.0504 21.0531 18.5955 20.9504 19.11 20.7552C19.4869 20.6163 19.8291 20.3972 20.1131 20.1132C20.3971 19.8292 20.6161 19.487 20.755 19.1102C20.9503 18.5956 21.053 18.0505 21.0584 17.5002V10.5002C21.0582 9.94931 20.9553 9.40332 20.755 8.89016V8.90183ZM14 18.4568C13.4153 18.4568 12.8364 18.3415 12.2963 18.1174C11.7563 17.8933 11.2657 17.5648 10.8528 17.1508C10.4399 16.7368 10.1127 16.2454 9.89004 15.7048C9.66735 15.1641 9.55351 14.5849 9.55504 14.0002C9.55504 13.1182 9.81672 12.2561 10.3069 11.523C10.7972 10.7898 11.4939 10.2186 12.3089 9.88164C13.124 9.54467 14.0206 9.45709 14.8855 9.63C15.7503 9.80291 16.5444 10.2285 17.1672 10.853C17.79 11.4774 18.2135 12.2726 18.3842 13.1379C18.5548 14.0032 18.4649 14.8996 18.1258 15.7138C17.7867 16.5279 17.2136 17.2231 16.4792 17.7114C15.7448 18.1997 14.882 18.4591 14 18.4568ZM18.6667 10.4185C18.4088 10.3912 18.1701 10.2694 17.9967 10.0766C17.8232 9.88384 17.7272 9.63367 17.7272 9.37433C17.7272 9.11499 17.8232 8.86482 17.9967 8.67203C18.1701 8.47924 18.4088 8.35746 18.6667 8.33016C18.9246 8.35746 19.1633 8.47924 19.3367 8.67203C19.5102 8.86482 19.6062 9.11499 19.6062 9.37433C19.6062 9.63367 19.5102 9.88384 19.3367 10.0766C19.1633 10.2694 18.9246 10.3912 18.6667 10.4185Z" fill="white"/>
</svg>
