<svg width="30" height="30" viewBox="0 0 30 30" fill="none" xmlns="http://www.w3.org/2000/svg">
<path d="M21.75 27.5001C16.6466 27.4935 11.7541 25.4632 8.1455 21.8546C4.53686 18.246 2.50661 13.3535 2.5 8.25009C2.5 6.7251 3.1058 5.26256 4.18414 4.18423C5.26247 3.1059 6.72501 2.50009 8.25 2.50009C8.57291 2.49811 8.89524 2.52742 9.2125 2.58759C9.51882 2.63454 9.82012 2.70987 10.1125 2.81259C10.3178 2.88463 10.5008 3.00901 10.6433 3.17343C10.7858 3.33786 10.8829 3.53663 10.925 3.75009L12.6375 11.2501C12.6837 11.4537 12.6781 11.6656 12.6213 11.8664C12.5646 12.0673 12.4584 12.2508 12.3125 12.4001C12.15 12.5751 12.1375 12.5876 10.6 13.3876C11.8303 16.0893 13.9909 18.2587 16.6875 19.5001C17.5 17.9501 17.5125 17.9376 17.6875 17.7751C17.8368 17.6292 18.0203 17.523 18.2211 17.4663C18.422 17.4095 18.6339 17.4039 18.8375 17.4501L26.3375 19.1626C26.5441 19.2105 26.7352 19.3103 26.8926 19.4524C27.0501 19.5946 27.1687 19.7744 27.2375 19.9751C27.3432 20.2717 27.4227 20.5771 27.475 20.8876C27.5241 21.2019 27.5492 21.5195 27.55 21.8376C27.527 23.3561 26.9041 24.8038 25.8175 25.8647C24.7308 26.9255 23.2686 27.5135 21.75 27.5001Z" fill="white"/>
</svg>
