<svg width="16" height="16" viewBox="0 0 16 16" fill="none" xmlns="http://www.w3.org/2000/svg">
<path d="M6.80368 2.07501C7.07309 1.80456 7.37211 1.58037 7.75422 1.51949C7.83563 1.50652 7.91775 1.5 8.00001 1.5C8.08226 1.5 8.16438 1.50652 8.24579 1.51949C8.6279 1.58037 8.92692 1.80456 9.19633 2.07501C9.45886 2.33856 9.75217 2.7085 10.1076 3.15682L11.0585 4.35602C11.23 4.5724 11.1937 4.88689 10.9773 5.05846C10.7609 5.23002 10.4464 5.19369 10.2749 4.97731L9.34299 3.802C8.97084 3.33265 8.71511 3.01131 8.50001 2.79301V11.3333C8.50001 11.6095 8.27615 11.8333 8.00001 11.8333C7.72387 11.8333 7.50001 11.6095 7.50001 11.3333V2.79301C7.2849 3.01131 7.02917 3.33265 6.65703 3.802L5.72513 4.97731C5.55356 5.19369 5.23907 5.23002 5.02269 5.05846C4.80631 4.88689 4.76999 4.5724 4.94155 4.35602L5.89238 3.15683C6.24783 2.70852 6.54116 2.33855 6.80368 2.07501Z" fill="black"/>
<path d="M13.7334 7.03304C13.5675 6.81225 13.2541 6.7677 13.0333 6.93355C12.8125 7.09939 12.768 7.41283 12.9338 7.63362C13.2895 8.10711 13.5 8.69491 13.5 9.33333V10C13.5 10.6384 13.4985 10.8995 13.4651 11.1099C13.2731 12.3223 12.3223 13.2731 11.1099 13.4651C10.8995 13.4984 10.6384 13.5 10 13.5H6.00001C5.36156 13.5 5.10055 13.4984 4.89011 13.4651C3.67775 13.2731 2.72691 12.3223 2.53489 11.1099C2.50156 10.8995 2.50001 10.6384 2.50001 10V9.33333C2.50001 8.69491 2.71056 8.10711 3.06621 7.63362C3.23206 7.41283 3.18751 7.09939 2.96672 6.93355C2.74592 6.7677 2.43249 6.81225 2.26665 7.03304C1.78538 7.67376 1.50001 8.47094 1.50001 9.33333L1.5 10.0539C1.49996 10.6219 1.49993 10.9679 1.5472 11.2663C1.80699 12.9066 3.09342 14.193 4.73367 14.4528C5.03213 14.5001 5.37812 14.5 5.94614 14.5H10.0539C10.6219 14.5 10.9679 14.5001 11.2663 14.4528C12.9066 14.193 14.193 12.9066 14.4528 11.2663C14.5001 10.9679 14.5001 10.6219 14.5 10.0539L14.5 9.33333C14.5 8.47094 14.2146 7.67376 13.7334 7.03304Z" fill="black"/>
</svg>
