<svg width="24" height="28" viewBox="0 0 24 28" fill="none" xmlns="http://www.w3.org/2000/svg">
<path d="M4.93393 13.9234C4.93393 15.2852 5.30893 16.6141 6.01607 17.757L6.18214 18.0305L5.46964 20.6883L8.14286 19.9719L8.4 20.1305C9.48214 20.7867 10.725 21.1367 11.9946 21.1367H12C15.8893 21.1367 19.1411 17.9047 19.1411 13.9289C19.1411 12.0039 18.3268 10.1938 16.9929 8.83203C15.6536 7.46484 13.8857 6.71563 12 6.71563C8.10536 6.71563 4.93929 9.94766 4.93393 13.9234ZM14.7214 18.0469C14.0464 18.1508 13.5214 18.0961 12.1768 17.5055C10.2054 16.6359 8.86607 14.6891 8.59286 14.2953C8.57143 14.2625 8.55536 14.2461 8.55 14.2352C8.44286 14.093 7.68214 13.0594 7.68214 11.993C7.68214 10.9867 8.16429 10.4672 8.38929 10.2266C8.40536 10.2102 8.41607 10.1992 8.42679 10.1828C8.61964 9.96406 8.85 9.90938 8.99464 9.90938C9.13393 9.90938 9.27857 9.90938 9.40179 9.91484H9.44464C9.56786 9.91484 9.72321 9.91484 9.87857 10.2867C9.94286 10.4453 10.0393 10.6859 10.1411 10.932C10.3179 11.3695 10.5 11.8234 10.5321 11.8945C10.5857 12.0039 10.6232 12.1297 10.5482 12.2719C10.3661 12.6437 10.1786 12.8406 10.05 12.9828C9.88393 13.1578 9.80893 13.2398 9.92679 13.4531C10.7464 14.8914 11.5661 15.3891 12.8143 16.0289C13.0286 16.1383 13.1518 16.1219 13.275 15.9742C13.3982 15.832 13.8054 15.3398 13.9446 15.1266C14.0839 14.9078 14.2286 14.9461 14.4214 15.0172C14.6143 15.0883 15.6589 15.6133 15.8732 15.7227C15.9161 15.7445 15.9536 15.7609 15.9857 15.7773C16.1357 15.8539 16.2375 15.9031 16.2804 15.9742C16.3286 16.0781 16.3286 16.5156 16.1518 17.0188C15.975 17.5273 15.1286 17.9867 14.7214 18.0469ZM24 5.25C24 3.31953 22.4625 1.75 20.5714 1.75H3.42857C1.5375 1.75 0 3.31953 0 5.25V22.75C0 24.6805 1.5375 26.25 3.42857 26.25H20.5714C22.4625 26.25 24 24.6805 24 22.75V5.25ZM7.93393 21.5414L3.42857 22.75L4.63393 18.2547C3.88929 16.9422 3.49821 15.4492 3.49821 13.918C3.50357 9.13828 7.3125 5.25 11.9946 5.25C14.2661 5.25 16.3982 6.15234 18.0054 7.79297C19.6071 9.43359 20.5714 11.6102 20.5714 13.9289C20.5714 18.7086 16.6768 22.5969 11.9946 22.5969C10.5696 22.5969 9.17143 22.2305 7.93393 21.5414Z" fill="white"/>
</svg>
